<?xml version="1.0" encoding="utf-8"?>
<!-- Generator: Adobe Illustrator 25.0.0, SVG Export Plug-In . SVG Version: 6.00 Build 0)  -->
<svg version="1.1" id="Layer_1" xmlns="http://www.w3.org/2000/svg" xmlns:xlink="http://www.w3.org/1999/xlink" x="0px" y="0px"
	 viewBox="0 0 16 16" style="enable-background:new 0 0 16 16;" xml:space="preserve">
<style type="text/css">
	.st0{fill:url(#SVGID_1_);}
	.st1{fill:url(#SVGID_2_);}
	.st2{fill:#FFFFFF;}
</style>
<g>
	<linearGradient id="SVGID_1_" gradientUnits="userSpaceOnUse" x1="10.5724" y1="6.1168" x2="15.5293" y2="12.0723">
		<stop  offset="0" style="stop-color:#1B9DED"/>
		<stop  offset="1" style="stop-color:#197BF4"/>
	</linearGradient>
	<path class="st0" d="M13.51,13.08l-2.83-0.01c0.67-0.4,1.22-1.04,1.42-1.75l1.92-6.64c0.15-0.52,0.1-0.99-0.1-1.36
		c0.32,0.35,0.54,0.78,0.61,1.24l0.95,6.4C15.66,12.13,14.77,13.08,13.51,13.08z"/>
	<linearGradient id="SVGID_2_" gradientUnits="userSpaceOnUse" x1="3.3917" y1="3.304" x2="11.2105" y2="12.698">
		<stop  offset="0" style="stop-color:#1B9DED"/>
		<stop  offset="1" style="stop-color:#1974EB"/>
	</linearGradient>
	<path class="st1" d="M14.02,4.69l-1.92,6.64c-0.2,0.71-0.75,1.35-1.42,1.75c-0.46,0.28-1,0.45-1.52,0.45l-6.93-0.01
		c-1.27-0.01-2.01-1-1.66-2.21l1.92-6.64c0.13-0.47,0.42-0.9,0.78-1.25c0.58-0.57,1.38-0.95,2.16-0.94l6.93,0.01h0.08
		c0.69,0.02,1.21,0.35,1.48,0.83c0,0,0,0,0.01,0.01C14.12,3.7,14.18,4.18,14.02,4.69z"/>
	<g>
		<path class="st2" d="M5.01,10.96l-1-3.1C3.96,7.71,4.05,7.54,4.2,7.5c0.15-0.05,0.32,0.04,0.37,0.19l0.67,2.09
			c1.48-1.72,3.13-3.19,4.91-4.38c0.13-0.09,0.32-0.05,0.41,0.08c0.09,0.13,0.05,0.32-0.08,0.41C8.61,7.13,6.88,8.7,5.35,10.55
			L5.01,10.96z"/>
	</g>
	
		<ellipse transform="matrix(0.4388 -0.8986 0.8986 0.4388 -3.7872 13.9654)" class="st2" cx="9.29" cy="10.01" rx="1.44" ry="0.95"/>
</g>
</svg>
